<svg xmlns="http://www.w3.org/2000/svg" width="64" height="64" viewBox="0 0 64 64"><path fill="#302C3B" d="M25.47 12.065S22.566 10 21.144 10c-10.787 0-12.181 4.856-12.565 6.282-.386 1.424 16.386-3.985 16.891-4.217z"/><linearGradient id="1f3ae-a" gradientUnits="userSpaceOnUse" x1="17" y1="49.678" x2="17" y2="11.658"><stop offset=".345" stop-color="#302c3b"/><stop offset=".575" stop-color="#3f424d"/><stop offset=".815" stop-color="#4a5259"/><stop offset="1" stop-color="#4e585e"/></linearGradient><path fill="url(#1f3ae-a)" d="M32 11.657c-14.531 0-23.154 1.657-24.962 6.688C5.077 23.804 2 40.388 2 46.059c0 10.235 14.766-4.493 16.641-4.493"/><path fill="#302C3B" d="M38.53 12.065S41.434 10 42.856 10c10.788 0 12.181 4.856 12.565 6.282.386 1.424-16.386-3.985-16.891-4.217z"/><linearGradient id="1f3ae-b" gradientUnits="userSpaceOnUse" x1="261.613" y1="49.678" x2="261.613" y2="11.658" gradientTransform="matrix(-1 0 0 1 308.613 0)"><stop offset=".345" stop-color="#302c3b"/><stop offset=".575" stop-color="#3f424d"/><stop offset=".815" stop-color="#4a5259"/><stop offset="1" stop-color="#4e585e"/></linearGradient><path fill="url(#1f3ae-b)" d="M32 11.657c14.531 0 23.154 1.657 24.963 6.688C58.924 23.804 62 40.388 62 46.059c0 10.235-14.766-4.493-16.641-4.493"/><linearGradient id="1f3ae-c" gradientUnits="userSpaceOnUse" x1="32.001" y1="41.565" x2="32.001" y2="11.658"><stop offset=".121" stop-color="#302c3b"/><stop offset=".242" stop-color="#393945"/><stop offset=".469" stop-color="#454a53"/><stop offset=".713" stop-color="#4c555b"/><stop offset="1" stop-color="#4e585e"/></linearGradient><path fill="url(#1f3ae-c)" d="M58.844 25.344s-.967-4.287-1.881-6.999C55.256 13.281 46.531 11.657 32 11.657S8.744 13.281 7.038 18.345c-.914 2.712-1.881 6.999-1.881 6.999S2.975 39.671 18.641 41.565h26.718c15.666-1.894 13.485-16.221 13.485-16.221z"/><linearGradient id="1f3ae-d" gradientUnits="userSpaceOnUse" x1="258.581" y1="48.428" x2="246.718" y2="36.433" gradientTransform="matrix(-1 0 0 1 308.613 0)"><stop offset="0" stop-color="#302c3b"/><stop offset=".211" stop-color="#373643"/><stop offset="1" stop-color="#4e585e"/></linearGradient><path fill="url(#1f3ae-d)" d="M58.844 25.344C60.445 32.487 62 42.028 62 46.059 62 51.835 59.271 54 56.502 54c-2.139 0-4.303-1.289-5.258-3.203-1.203-2.408-4.097-7.323-5.885-9.231 3.787-1.017 13.133-11.776 13.485-16.222z"/><linearGradient id="1f3ae-e" gradientUnits="userSpaceOnUse" x1="13.969" y1="48.428" x2="2.106" y2="36.433"><stop offset="0" stop-color="#302c3b"/><stop offset=".211" stop-color="#373643"/><stop offset="1" stop-color="#4e585e"/></linearGradient><path fill="url(#1f3ae-e)" d="M5.157 25.344C3.555 32.487 2 42.028 2 46.059 2 51.835 4.729 54 7.499 54c2.139 0 4.303-1.289 5.258-3.203 1.203-2.408 4.096-7.323 5.884-9.231C14.854 40.549 5.508 29.79 5.157 25.344z"/><linearGradient id="1f3ae-f" gradientUnits="userSpaceOnUse" x1="36.661" y1="30.323" x2="45.146" y2="38.809"><stop offset="0" stop-color="#4e585e"/><stop offset=".283" stop-color="#4a5259"/><stop offset=".655" stop-color="#3f424c"/><stop offset="1" stop-color="#302c3b"/></linearGradient><circle fill="url(#1f3ae-f)" cx="40.903" cy="34.565" r="6"/><circle fill="#1A1626" cx="40.903" cy="34.565" r="4.5"/><radialGradient id="1f3ae-g" cx="40.45" cy="33.463" r="4.131" gradientUnits="userSpaceOnUse"><stop offset="0" stop-color="#657078"/><stop offset=".265" stop-color="#606b72"/><stop offset=".613" stop-color="#525b62"/><stop offset="1" stop-color="#3c4247"/></radialGradient><circle fill="url(#1f3ae-g)" cx="40.903" cy="34.565" r="3.5"/><linearGradient id="1f3ae-h" gradientUnits="userSpaceOnUse" x1="18.855" y1="30.324" x2="27.339" y2="38.808"><stop offset="0" stop-color="#4e585e"/><stop offset=".283" stop-color="#4a5259"/><stop offset=".655" stop-color="#3f424c"/><stop offset="1" stop-color="#302c3b"/></linearGradient><circle fill="url(#1f3ae-h)" cx="23.097" cy="34.565" r="6"/><circle fill="#1A1626" cx="23.097" cy="34.565" r="4.5"/><radialGradient id="1f3ae-i" cx="22.644" cy="33.463" r="4.131" gradientUnits="userSpaceOnUse"><stop offset="0" stop-color="#657078"/><stop offset=".265" stop-color="#606b72"/><stop offset=".613" stop-color="#525b62"/><stop offset="1" stop-color="#3c4247"/></radialGradient><circle fill="url(#1f3ae-i)" cx="23.097" cy="34.565" r="3.5"/><radialGradient id="1f3ae-j" cx="48.37" cy="18.409" r="2.746" gradientUnits="userSpaceOnUse"><stop offset="0" stop-color="#ffe02e"/><stop offset=".249" stop-color="#ffda29"/><stop offset=".586" stop-color="#ffc91a"/><stop offset=".971" stop-color="#ffac02"/><stop offset="1" stop-color="#fa0"/></radialGradient><circle fill="url(#1f3ae-j)" cx="48.814" cy="18.963" r="2.307"/><radialGradient id="1f3ae-k" cx="52.565" cy="22.602" r="2.746" gradientUnits="userSpaceOnUse"><stop offset=".212" stop-color="#ff3b3b"/><stop offset=".418" stop-color="#f63131"/><stop offset=".771" stop-color="#de1615"/><stop offset="1" stop-color="#cc0100"/></radialGradient><path fill="url(#1f3ae-k)" d="M53.008 20.85a2.306 2.306 0 0 0-2.307 2.307 2.307 2.307 0 1 0 2.307-2.307z"/><radialGradient id="1f3ae-l" cx="48.37" cy="26.797" r="2.746" gradientUnits="userSpaceOnUse"><stop offset="0" stop-color="#9be022"/><stop offset=".267" stop-color="#91d422"/><stop offset=".747" stop-color="#78b423"/><stop offset="1" stop-color="#69a123"/></radialGradient><circle fill="url(#1f3ae-l)" cx="48.814" cy="27.352" r="2.307"/><radialGradient id="1f3ae-m" cx="44.178" cy="22.604" r="2.746" gradientUnits="userSpaceOnUse"><stop offset="0" stop-color="#2289c7"/><stop offset=".291" stop-color="#1a7eb9"/><stop offset=".842" stop-color="#066093"/><stop offset="1" stop-color="#005687"/></radialGradient><path fill="url(#1f3ae-m)" d="M44.621 20.851a2.307 2.307 0 0 0-2.307 2.307 2.308 2.308 0 1 0 2.307-2.307z"/><radialGradient id="1f3ae-n" cx="11.475" cy="23.157" r="2.102" gradientUnits="userSpaceOnUse"><stop offset="0" stop-color="#7b9099"/><stop offset=".449" stop-color="#768a92"/><stop offset="1" stop-color="#6a7b82"/></radialGradient><path fill="url(#1f3ae-n)" d="M12.924 21.89c-.324-.347-.976-.629-1.451-.629h-1.425a.864.864 0 0 0-.861.861v2.07c0 .474.388.861.861.861h1.425c.475 0 1.127-.282 1.451-.629l.597-.639a.936.936 0 0 0 0-1.258l-.597-.637z"/><radialGradient id="1f3ae-o" cx="18.899" cy="23.157" r="2.101" gradientUnits="userSpaceOnUse"><stop offset="0" stop-color="#7b9099"/><stop offset=".449" stop-color="#768a92"/><stop offset="1" stop-color="#6a7b82"/></radialGradient><path fill="url(#1f3ae-o)" d="M17.452 24.425c.324.347.976.629 1.451.629h1.425a.863.863 0 0 0 .859-.861v-2.07a.862.862 0 0 0-.859-.861h-1.425c-.475 0-1.127.282-1.451.629l-.597.639a.936.936 0 0 0 0 1.258l.597.637z"/><radialGradient id="1f3ae-p" cx="15.188" cy="19.445" r="2.101" gradientUnits="userSpaceOnUse"><stop offset="0" stop-color="#7b9099"/><stop offset=".449" stop-color="#768a92"/><stop offset="1" stop-color="#6a7b82"/></radialGradient><path fill="url(#1f3ae-p)" d="M16.457 20.894c.345-.325.628-.977.628-1.45v-1.425a.863.863 0 0 0-.861-.861h-2.071a.864.864 0 0 0-.861.861v1.425c0 .474.281 1.125.628 1.45l.639.598a.939.939 0 0 0 1.257 0l.641-.598z"/><radialGradient id="1f3ae-q" cx="15.188" cy="26.869" r="2.101" gradientUnits="userSpaceOnUse"><stop offset="0" stop-color="#7b9099"/><stop offset=".449" stop-color="#768a92"/><stop offset="1" stop-color="#6a7b82"/></radialGradient><path fill="url(#1f3ae-q)" d="M13.921 25.422c-.347.324-.628.977-.628 1.449v1.426c0 .474.388.86.861.86h2.071a.863.863 0 0 0 .861-.86v-1.426c0-.473-.283-1.125-.628-1.449l-.639-.599a.939.939 0 0 0-1.257 0l-.641.599z"/><path fill="#556670" d="M32 19.12c1.654 0 3 1.346 3 3s-1.346 3-3 3-3-1.346-3-3 1.346-3 3-3zm0-1a4 4 0 1 0 .002 8.002A4 4 0 0 0 32 18.12z"/><path fill="#556670" d="M32.8 22.521c-.133 0-.201-.066-.201-.199v-.4c0-.135.067-.201.201-.201h1.3c.135 0 .2.066.2.201v.199a2.3 2.3 0 0 1-3.926 1.627c-.095-.096-.095-.188-.001-.283l.427-.424c.094-.094.188-.094.281 0a1.298 1.298 0 0 0 2.156-.519H32.8z"/></svg>