<svg xmlns="http://www.w3.org/2000/svg" width="64" height="64" viewBox="0 0 64 64"><radialGradient id="1f386-a" cx="31.838" cy="31.94" r="17" gradientUnits="userSpaceOnUse"><stop offset="0" stop-color="#ff87b3" stop-opacity=".8"/><stop offset=".13" stop-color="#ff87b3" stop-opacity=".683"/><stop offset=".885" stop-color="#ff87b3" stop-opacity="0"/></radialGradient><path fill="url(#1f386-a)" d="M14.838 31.932c0 22.684 34 22.674 34 0 0-22.656-34-22.656-34 0z"/><path fill="#FFE3EF" d="M30.338 31.939c0 2.002 3 2.001 3 0 0-1.999-3-1.999-3 0z"/><path fill="#FF5794" d="M25.866 51.217c.238-.646 4.34-14.646 4.34-14.646s-5.629 13.061-5.938 13.908c-.631 1.694 1.045 2.233 1.598.738zM12.361 37.209c.676-.146 14.628-4.241 14.628-4.241S13 35.264 12.124 35.461c-1.765.383-1.311 2.089.237 1.748zM16.812 18.615c.492.484 11.542 9.965 11.542 9.965s-9.571-10.498-10.217-11.126c-1.286-1.272-2.458.043-1.325 1.161zM37.507 12.486c-.211.66-3.637 14.842-3.637 14.842s5-13.319 5.268-14.18c.55-1.724-1.149-2.182-1.631-.662zM51.021 26.302c-.674.147-14.605 4.3-14.605 4.3s13.98-2.354 14.855-2.558c1.759-.387 1.3-2.091-.25-1.742zM46.665 45c-.494-.48-11.604-9.889-11.604-9.889S44.7 45.545 45.349 46.169c1.293 1.265 2.457-.056 1.316-1.169z"/><path fill="#F699FF" d="M54.515 37.958c-.646-.206-14.535-3.495-14.535-3.495s13.053 4.848 13.896 5.104c1.691.531 2.127-1.144.639-1.609zM48.151 14.718c-.486.474-9.943 11.197-9.943 11.197s10.432-9.25 11.055-9.875c1.267-1.243.004-2.421-1.112-1.322zM8.958 25.758c.642.212 14.501 3.616 14.501 3.616S10.447 24.42 9.606 24.159c-1.686-.548-2.135 1.124-.648 1.599zM25.063 37.912S14.561 47.08 13.933 47.7c-1.278 1.231-.022 2.423 1.099 1.33.489-.467 10.031-11.118 10.031-11.118z"/><path fill="#FF6BD5" d="M46.694 7.462c-.531.802-10.482 18.453-10.482 18.453S47.938 10.02 48.626 8.97c1.383-2.093-.713-3.356-1.932-1.508zM16.792 56.298c.55-.787 10.998-18.148 10.998-18.148S15.62 53.709 14.901 54.734c-1.441 2.057.618 3.377 1.891 1.564zM57.491 20.629c2.252-1.093 1.09-3.253-.898-2.286-.861.419-18.385 10.515-18.385 10.515s18.158-7.678 19.283-8.229zM5.949 42.913c-2.284 1.028-1.185 3.223.831 2.313.873-.396 18.681-9.974 18.681-9.974S7.089 42.398 5.949 42.913zM60.384 30.376c-.957-.045-21.154.39-21.154.39s19.604 1.991 20.854 2.049c2.497.123 2.507-2.333.3-2.439zM3.861 30.973c-2.504 0-2.396 2.451-.188 2.451.959 0 21.113-1.41 21.113-1.41S5.111 30.973 3.861 30.973zM57.468 44.796c-.826-.481-18.982-9.377-18.982-9.377s16.52 10.779 17.604 11.406c2.165 1.259 3.292-.919 1.378-2.029zM6.476 19.201c.83.48 18.986 9.377 18.986 9.377S8.94 17.798 7.857 17.172c-2.168-1.258-3.294.919-1.381 2.029zM35.206 38.602s7.26 18.388 7.783 19.527c1.041 2.284 3.217 1.166 2.295-.852-.396-.875-10.078-18.675-10.078-18.675zM18.624 6.576c.397.877 10.039 18.697 10.039 18.697s-7.222-18.401-7.74-19.545c-1.039-2.287-3.217-1.171-2.299.848zM31.104 60.131c0 2.514 2.442 2.406 2.442.188-.002-.961-1.403-21.193-1.403-21.193s-1.039 19.75-1.039 21.005zM32.513 3.852c-.03-2.512-2.473-2.373-2.444-.156.011.96 1.66 21.177 1.66 21.177s.799-19.766.784-21.021z"/></svg>