<?xml version="1.0" encoding="utf-8"?>
<!-- Generator: Adobe Illustrator 21.1.0, SVG Export Plug-In . SVG Version: 6.00 Build 0)  -->
<svg version="1.1" id="Layer_1" xmlns="http://www.w3.org/2000/svg" xmlns:xlink="http://www.w3.org/1999/xlink" x="0px" y="0px"
	 width="440px" height="188px" viewBox="0 0 440 188" style="enable-background:new 0 0 440 188;" xml:space="preserve">
<g>
	<path style="fill:#66000F;" d="M111.6,83.4l-11.6,14c-0.9,1-0.4,2.6,0.8,3.1c62.9,22.7,93.4,42,107.7,54c7.1,5.9,17.2,5.7,24.1-0.3
		c14.6-12.8,45.7-33.2,108.7-53c1.2-0.4,1.7-1.9,1-3l-9.9-14.4L111.6,83.4z"/>
	<g>
		<path style="fill:#9B000F;" d="M221.1,0.1L2,57.9c-2.4,0.6-2.4,3.4,0,4l217.3,57.7c0.6,0.1,1.2,0.1,1.7,0l217.3-57.7
			c2.4-0.6,2.4-3.3,0-4L222.8,0.1C222.3-0.1,221.6-0.1,221.1,0.1z"/>
		<ellipse style="fill:#66000F;" cx="221.1" cy="55.2" rx="16.5" ry="4.7"/>
		<path style="fill:#D68F00;" d="M387.2,104.2c-0.9-14-4.1-23.8-6.4-24.9c-32.1-14.6-158.3-22.2-159.9-22.3l0.4-3.5
			c0.4,0,43.1,2.6,81.4,6.8c56.9,6.3,66.4,9.6,80.3,15.9c6.5,3,8.3,22,8.7,27.7L387.2,104.2z"/>
		<g>
			<g>
				<path style="fill:#D68F00;" d="M396.6,188h0.7c0.2,0,0.4-0.2,0.4-0.4v-67.3c0-0.2-0.2-0.4-0.4-0.4h-0.7c-0.2,0-0.4,0.2-0.4,0.4
					v67.3C396.1,187.8,396.3,188,396.6,188z"/>
				<path style="fill:#FC9B00;" d="M396.9,188L396.9,188c0.4,0,0.8-0.5,0.8-1.2V121c0-0.6-0.3-1.2-0.8-1.2l0,0
					C396.5,119.8,396.5,188,396.9,188z"/>
			</g>
			<g>
				<path style="fill:#D68F00;" d="M395,186.5h0.7c0.2,0,0.4-0.2,0.4-0.4v-67.3c0-0.2-0.2-0.4-0.4-0.4H395c-0.2,0-0.4,0.2-0.4,0.4
					V186C394.6,186.3,394.8,186.5,395,186.5z"/>
				<path style="fill:#FC9B00;" d="M395.4,186.5L395.4,186.5c0.4,0,0.8-0.5,0.8-1.2v-65.9c0-0.6-0.3-1.2-0.8-1.2l0,0
					C394.9,118.3,394.9,186.5,395.4,186.5z"/>
			</g>
			<g>
				<path style="fill:#D68F00;" d="M393.5,188h0.7c0.2,0,0.4-0.2,0.4-0.4v-67.3c0-0.2-0.2-0.4-0.4-0.4h-0.7c-0.2,0-0.4,0.2-0.4,0.4
					v67.3C393.1,187.8,393.2,188,393.5,188z"/>
				<path style="fill:#FC9B00;" d="M393.8,188L393.8,188c0.4,0,0.8-0.5,0.8-1.2V121c0-0.6-0.3-1.2-0.8-1.2l0,0
					C393.4,119.8,393.4,188,393.8,188z"/>
			</g>
			<g>
				<path style="fill:#D68F00;" d="M391.9,187.1h0.7c0.2,0,0.4-0.2,0.4-0.4v-67.3c0-0.2-0.2-0.4-0.4-0.4h-0.7
					c-0.2,0-0.4,0.2-0.4,0.4v67.3C391.5,186.9,391.7,187.1,391.9,187.1z"/>
				<path style="fill:#FC9B00;" d="M392.3,187.1L392.3,187.1c0.4,0,0.8-0.5,0.8-1.2v-65.9c0-0.6-0.3-1.2-0.8-1.2h0
					C391.9,118.9,391.9,187.1,392.3,187.1z"/>
			</g>
			<g>
				<path style="fill:#D68F00;" d="M390.4,188h0.7c0.2,0,0.4-0.2,0.4-0.4v-67.3c0-0.2-0.2-0.4-0.4-0.4h-0.7c-0.2,0-0.4,0.2-0.4,0.4
					v67.3C390,187.8,390.2,188,390.4,188z"/>
				<path style="fill:#FC9B00;" d="M390.7,188L390.7,188c0.4,0,0.8-0.5,0.8-1.2V121c0-0.6-0.3-1.2-0.8-1.2l0,0
					C390.3,119.8,390.3,188,390.7,188z"/>
			</g>
			<g>
				<path style="fill:#D68F00;" d="M388.9,187.6h0.7c0.2,0,0.4-0.2,0.4-0.4v-67.3c0-0.2-0.2-0.4-0.4-0.4h-0.7
					c-0.2,0-0.4,0.2-0.4,0.4v67.3C388.4,187.5,388.6,187.6,388.9,187.6z"/>
				<path style="fill:#FC9B00;" d="M389.2,187.6L389.2,187.6c0.4,0,0.8-0.5,0.8-1.2v-65.9c0-0.6-0.3-1.2-0.8-1.2l0,0
					C388.8,119.5,388.8,187.6,389.2,187.6z"/>
			</g>
			<g>
				<path style="fill:#D68F00;" d="M387.3,187.1h0.7c0.2,0,0.4-0.2,0.4-0.4v-67.3c0-0.2-0.2-0.4-0.4-0.4h-0.7
					c-0.2,0-0.4,0.2-0.4,0.4v67.3C386.9,186.9,387.1,187.1,387.3,187.1z"/>
				<path style="fill:#FC9B00;" d="M387.7,187.1L387.7,187.1c0.4,0,0.8-0.5,0.8-1.2v-65.9c0-0.6-0.3-1.2-0.8-1.2l0,0
					C387.2,118.9,387.2,187.1,387.7,187.1z"/>
			</g>
			<g>
				<path style="fill:#D68F00;" d="M385.8,187.6h0.7c0.2,0,0.4-0.2,0.4-0.4v-67.3c0-0.2-0.2-0.4-0.4-0.4h-0.7
					c-0.2,0-0.4,0.2-0.4,0.4v67.3C385.3,187.5,385.5,187.6,385.8,187.6z"/>
				<path style="fill:#FC9B00;" d="M386.1,187.6L386.1,187.6c0.4,0,0.8-0.5,0.8-1.2v-65.9c0-0.6-0.3-1.2-0.8-1.2l0,0
					C385.7,119.5,385.7,187.6,386.1,187.6z"/>
			</g>
			<g>
				<path style="fill:#D68F00;" d="M384.2,187.1h0.7c0.2,0,0.4-0.2,0.4-0.4v-67.3c0-0.2-0.2-0.4-0.4-0.4h-0.7
					c-0.2,0-0.4,0.2-0.4,0.4v67.3C383.8,186.9,384,187.1,384.2,187.1z"/>
				<path style="fill:#FC9B00;" d="M384.6,187.1L384.6,187.1c0.4,0,0.8-0.5,0.8-1.2v-65.9c0-0.6-0.3-1.2-0.8-1.2l0,0
					C384.1,118.9,384.1,187.1,384.6,187.1z"/>
			</g>
			<g>
				<path style="fill:#D68F00;" d="M382.7,187.6h0.7c0.2,0,0.4-0.2,0.4-0.4v-67.3c0-0.2-0.2-0.4-0.4-0.4h-0.7
					c-0.2,0-0.4,0.2-0.4,0.4v67.3C382.3,187.5,382.5,187.6,382.7,187.6z"/>
				<path style="fill:#FC9B00;" d="M383,187.6L383,187.6c0.4,0,0.8-0.5,0.8-1.2v-65.9c0-0.6-0.3-1.2-0.8-1.2l0,0
					C382.6,119.5,382.6,187.6,383,187.6z"/>
			</g>
			<g>
				<path style="fill:#D68F00;" d="M381.2,186.5h0.7c0.2,0,0.4-0.2,0.4-0.4v-67.3c0-0.2-0.2-0.4-0.4-0.4h-0.7
					c-0.2,0-0.4,0.2-0.4,0.4V186C380.8,186.3,381,186.5,381.2,186.5z"/>
				<path style="fill:#FC9B00;" d="M381.5,186.5L381.5,186.5c0.4,0,0.8-0.5,0.8-1.2v-65.9c0-0.6-0.3-1.2-0.8-1.2l0,0
					C381.1,118.3,381.1,186.5,381.5,186.5z"/>
			</g>
		</g>
		<path style="fill:#D68F00;" d="M399,118.7c0,6-19.1,6-19.1,0c0-6,0-15.3,9.5-15.3C399,103.4,399,112.7,399,118.7z"/>
		<path style="fill:#FC9B00;" d="M399,118.1c0,6-19.1,6-19.1,0c0-6,0-15.3,9.5-15.3C399,102.8,399,112.1,399,118.1z"/>
		<ellipse style="fill:#9B000F;" cx="221.1" cy="55.2" rx="2.8" ry="2"/>
	</g>
</g>
</svg>
