<svg xmlns="http://www.w3.org/2000/svg" width="64" height="64" viewBox="0 0 64 64"><path fill="#302C3B" d="M8.987 42h46V11.396c0-.772-.572-1.396-1.278-1.396H10.265c-.705 0-1.277.625-1.277 1.396V42z"/><linearGradient id="1f4bb-a" gradientUnits="userSpaceOnUse" x1="31.989" y1="40.006" x2="31.989" y2="12.851"><stop offset="0" stop-color="#4e5e67"/><stop offset="1" stop-color="#6e8189"/></linearGradient><path fill="url(#1f4bb-a)" d="M11.355 12.85h41.266v27.156H11.355z"/><path fill="#4E5E67" d="M32.488 11.56c0 .667-1 .667-1 0 0-.665 1-.665 1 0zM2 59.998C2 60.374 4 62 4 62l56-.001s2-1.626 2-2.001H2z"/><path fill="#CFD8DD" d="M55 42H9L2 59.998h60z"/><path fill="#99A8AE" d="M39.646 53.08H24.38l-1.146 5.988h17.557z"/><path fill="#F5F5F5" d="M25.427 46.805l.173-1.248h-4.625l-.289 1.248zM26.352 46.805h5.207v-1.248h-5.036zM20.023 45.557h-4.551l-.364 1.248h4.625zM9.744 45.557l-.427 1.248h4.817l.363-1.248zM31.559 44.345v-1.111h-4.715l-.154 1.111zM25.767 44.345l.153-1.111h-4.406l-.258 1.111zM10.539 43.234l-.38 1.111h4.692l.324-1.111zM20.305 44.345l.258-1.111h-4.414l-.324 1.111zM19.817 50.543l-.386 1.667h5.25l.23-1.667zM25.835 50.543l-.23 1.667h5.954v-1.667zM8.038 50.543l-.57 1.667h5.09l.486-1.667zM14.019 50.543l-.487 1.667h4.947l.387-1.667zM26.003 49.33h5.556v-1.314h-5.375zM8.902 48.016l-.449 1.314h4.944l.383-1.314zM20.404 48.016l-.305 1.314h4.979l.182-1.314zM19.453 48.016h-4.698l-.383 1.314h4.775zM38.599 46.805l-.172-1.248h4.625l.289 1.248zM37.675 46.805h-5.207v-1.248h5.035zM44.003 45.557h4.552l.363 1.248h-4.626zM54.282 45.557l.427 1.248h-4.816l-.364-1.248zM32.468 44.345v-1.111h4.715l.153 1.111zM38.26 44.345l-.154-1.111h4.406l.258 1.111zM53.487 43.234l.38 1.111h-4.691l-.324-1.111zM43.722 44.345l-.258-1.111h4.413l.324 1.111zM44.209 50.543l.387 1.667h-5.25l-.231-1.667zM38.19 50.543l.231 1.667h-5.953v-1.667zM55.987 50.543l.572 1.667h-5.09l-.487-1.667zM50.008 50.543l.486 1.667h-4.947l-.387-1.667zM38.023 49.33h-5.555v-1.314h5.374zM55.123 48.016l.45 1.314h-4.944l-.383-1.314zM43.622 48.016l.305 1.314h-4.98l-.18-1.314zM44.573 48.016h4.698l.383 1.314h-4.775z"/></svg>